<svg xmlns="http://www.w3.org/2000/svg" width="1240" height="1560" viewBox="0 0 1240 1560"><rect width="1240" height="1560" fill="#FFFFFF"/>
<text x="64" y="76" font-family="Poppins" font-weight="700" font-size="30" fill="#16263F">Notewright</text>
<text x="64" y="104" font-family="Poppins" font-weight="500" font-size="16" fill="#5B6472">Logo &amp; brand marks — v5 · faceted nib + circuitry (working / pre-clearance)</text>
<line x1="64" y1="128" x2="1176" y2="128" stroke="#E3E7EF" stroke-width="2"/>
<text x="64" y="178" font-family="Poppins" font-weight="600" font-size="15" letter-spacing="2" fill="#BC8A1C">PRIMARY LOGO</text>
<g transform="translate(70, 210) scale(0.62)"><g transform="translate(0, 0) scale(0.92)"><path d="M 52 92 L 20 92 L 20 126" fill="none" stroke="#16263F" stroke-width="4.6" stroke-linejoin="miter" stroke-linecap="round"/><circle cx="20" cy="126" r="5.4" fill="#16263F"/><path d="M 52 116 L 32 116" fill="none" stroke="#16263F" stroke-width="4.6" stroke-linejoin="miter" stroke-linecap="round"/><circle cx="32" cy="116" r="5.4" fill="#16263F"/><path d="M 56 140 L 34 162" fill="none" stroke="#16263F" stroke-width="4.6" stroke-linejoin="miter" stroke-linecap="round"/><circle cx="34" cy="162" r="5.4" fill="#16263F"/><path d="M 60 165 L 60 190 L 40 190" fill="none" stroke="#16263F" stroke-width="4.6" stroke-linejoin="miter" stroke-linecap="round"/><circle cx="40" cy="190" r="5.4" fill="#16263F"/><path d="M 110 197 L 92 214 L 62 214" fill="none" stroke="#16263F" stroke-width="4.6" stroke-linejoin="miter" stroke-linecap="round"/><circle cx="62" cy="214" r="5.4" fill="#16263F"/><path d="M 131 197 L 146 212 L 172 212" fill="none" stroke="#16263F" stroke-width="4.6" stroke-linejoin="miter" stroke-linecap="round"/><circle cx="172" cy="212" r="5.4" fill="#16263F"/><circle cx="44" cy="103" r="5.4" fill="#16263F"/><circle cx="150" cy="198" r="4.86" fill="#16263F"/><circle cx="20" cy="126" r="5.4" fill="#16263F"/>
    <polygon points="120,20 50,59.6 190,59.6" fill="#16263F"/>
    <polygon points="50,59.6 120,113.60000000000001 120,200" fill="#21395C"/>
    <polygon points="190,59.6 120,113.60000000000001 120,160.4" fill="#E2B53C"/>
    <polygon points="190,59.6 120,160.4 120,200" fill="#BC8A1C"/>
    <line x1="120" y1="74" x2="120" y2="194.6" stroke="#0E1B30" stroke-width="3.5" stroke-linecap="round"/>
    <circle cx="120" cy="74" r="11.9" fill="#F4F6FA" stroke="#16263F" stroke-width="3.15"/></g>
      <g transform="translate(221.68, 23.560000000000002)"><text x="0" y="137.28" font-family="Poppins" font-weight="700" font-size="132" letter-spacing="0.5" fill="#16263F">Notewright</text></g></g>
<rect x="0" y="470" width="1240" height="240" fill="#16263F"/>
<text x="64" y="514" font-family="Poppins" font-weight="600" font-size="15" letter-spacing="2" fill="#E2B53C">ON DARK</text>
<g transform="translate(70, 540) scale(0.62)"><g transform="translate(0, 0) scale(0.92)"><path d="M 52 92 L 20 92 L 20 126" fill="none" stroke="#9FB0CF" stroke-width="4.6" stroke-linejoin="miter" stroke-linecap="round"/><circle cx="20" cy="126" r="5.4" fill="#9FB0CF"/><path d="M 52 116 L 32 116" fill="none" stroke="#9FB0CF" stroke-width="4.6" stroke-linejoin="miter" stroke-linecap="round"/><circle cx="32" cy="116" r="5.4" fill="#9FB0CF"/><path d="M 56 140 L 34 162" fill="none" stroke="#9FB0CF" stroke-width="4.6" stroke-linejoin="miter" stroke-linecap="round"/><circle cx="34" cy="162" r="5.4" fill="#9FB0CF"/><path d="M 60 165 L 60 190 L 40 190" fill="none" stroke="#9FB0CF" stroke-width="4.6" stroke-linejoin="miter" stroke-linecap="round"/><circle cx="40" cy="190" r="5.4" fill="#9FB0CF"/><path d="M 110 197 L 92 214 L 62 214" fill="none" stroke="#9FB0CF" stroke-width="4.6" stroke-linejoin="miter" stroke-linecap="round"/><circle cx="62" cy="214" r="5.4" fill="#9FB0CF"/><path d="M 131 197 L 146 212 L 172 212" fill="none" stroke="#9FB0CF" stroke-width="4.6" stroke-linejoin="miter" stroke-linecap="round"/><circle cx="172" cy="212" r="5.4" fill="#9FB0CF"/><circle cx="44" cy="103" r="5.4" fill="#9FB0CF"/><circle cx="150" cy="198" r="4.86" fill="#9FB0CF"/><circle cx="20" cy="126" r="5.4" fill="#9FB0CF"/>
    <polygon points="120,20 50,59.6 190,59.6" fill="#8493B0"/>
    <polygon points="50,59.6 120,113.60000000000001 120,200" fill="#A9B9D6"/>
    <polygon points="190,59.6 120,113.60000000000001 120,160.4" fill="#E6BC46"/>
    <polygon points="190,59.6 120,160.4 120,200" fill="#C99A24"/>
    <line x1="120" y1="74" x2="120" y2="194.6" stroke="#C7D2E8" stroke-width="3.5" stroke-linecap="round"/>
    <circle cx="120" cy="74" r="11.9" fill="#13243F" stroke="#9FB0CF" stroke-width="3.15"/></g>
      <g transform="translate(221.68, 23.560000000000002)"><text x="0" y="137.28" font-family="Poppins" font-weight="700" font-size="132" letter-spacing="0.5" fill="#FFFFFF">Notewright</text></g></g>
<text x="64" y="790" font-family="Poppins" font-weight="600" font-size="15" letter-spacing="2" fill="#BC8A1C">THE MARK</text>
<text x="660" y="790" font-family="Poppins" font-weight="600" font-size="15" letter-spacing="2" fill="#BC8A1C">APP / SOCIAL ICON</text>
<g transform="translate(120, 810) scale(1.05)"><path d="M 52 92 L 20 92 L 20 126" fill="none" stroke="#16263F" stroke-width="4.6" stroke-linejoin="miter" stroke-linecap="round"/><circle cx="20" cy="126" r="5.4" fill="#16263F"/><path d="M 52 116 L 32 116" fill="none" stroke="#16263F" stroke-width="4.6" stroke-linejoin="miter" stroke-linecap="round"/><circle cx="32" cy="116" r="5.4" fill="#16263F"/><path d="M 56 140 L 34 162" fill="none" stroke="#16263F" stroke-width="4.6" stroke-linejoin="miter" stroke-linecap="round"/><circle cx="34" cy="162" r="5.4" fill="#16263F"/><path d="M 60 165 L 60 190 L 40 190" fill="none" stroke="#16263F" stroke-width="4.6" stroke-linejoin="miter" stroke-linecap="round"/><circle cx="40" cy="190" r="5.4" fill="#16263F"/><path d="M 110 197 L 92 214 L 62 214" fill="none" stroke="#16263F" stroke-width="4.6" stroke-linejoin="miter" stroke-linecap="round"/><circle cx="62" cy="214" r="5.4" fill="#16263F"/><path d="M 131 197 L 146 212 L 172 212" fill="none" stroke="#16263F" stroke-width="4.6" stroke-linejoin="miter" stroke-linecap="round"/><circle cx="172" cy="212" r="5.4" fill="#16263F"/><circle cx="44" cy="103" r="5.4" fill="#16263F"/><circle cx="150" cy="198" r="4.86" fill="#16263F"/><circle cx="20" cy="126" r="5.4" fill="#16263F"/>
    <polygon points="120,20 50,59.6 190,59.6" fill="#16263F"/>
    <polygon points="50,59.6 120,113.60000000000001 120,200" fill="#21395C"/>
    <polygon points="190,59.6 120,113.60000000000001 120,160.4" fill="#E2B53C"/>
    <polygon points="190,59.6 120,160.4 120,200" fill="#BC8A1C"/>
    <line x1="120" y1="74" x2="120" y2="194.6" stroke="#0E1B30" stroke-width="3.5" stroke-linecap="round"/>
    <circle cx="120" cy="74" r="11.9" fill="#F4F6FA" stroke="#16263F" stroke-width="3.15"/></g>
<text x="64" y="1090" font-family="Poppins" font-weight="500" font-size="13" fill="#5B6472">Faceted nib + circuit traces — the craft of writing, engineered.</text>
<g transform="translate(660, 820)"><rect x="1" y="1" width="148" height="148" rx="34.5" ry="34.5" fill="#FFFFFF" stroke="#E3E7EF" stroke-width="2"/>
    <g transform="translate(12.999999999999993, 18.166666666666664) scale(0.5166666666666667)">
    <polygon points="120,20 50,59.6 190,59.6" fill="#16263F"/>
    <polygon points="50,59.6 120,113.60000000000001 120,200" fill="#21395C"/>
    <polygon points="190,59.6 120,113.60000000000001 120,160.4" fill="#E2B53C"/>
    <polygon points="190,59.6 120,160.4 120,200" fill="#BC8A1C"/>
    <line x1="120" y1="74" x2="120" y2="194.6" stroke="#0E1B30" stroke-width="3.5" stroke-linecap="round"/>
    <circle cx="120" cy="74" r="11.9" fill="#F4F6FA" stroke="#16263F" stroke-width="3.15"/></g></g>
<g transform="translate(840, 820)"><rect x="1" y="1" width="148" height="148" rx="34.5" ry="34.5" fill="#F4F6FA" stroke="#E3E7EF" stroke-width="2"/>
    <g transform="translate(12.999999999999993, 18.166666666666664) scale(0.5166666666666667)">
    <polygon points="120,20 50,59.6 190,59.6" fill="#16263F"/>
    <polygon points="50,59.6 120,113.60000000000001 120,200" fill="#21395C"/>
    <polygon points="190,59.6 120,113.60000000000001 120,160.4" fill="#E2B53C"/>
    <polygon points="190,59.6 120,160.4 120,200" fill="#BC8A1C"/>
    <line x1="120" y1="74" x2="120" y2="194.6" stroke="#0E1B30" stroke-width="3.5" stroke-linecap="round"/>
    <circle cx="120" cy="74" r="11.9" fill="#F4F6FA" stroke="#16263F" stroke-width="3.15"/></g></g>
<g transform="translate(1020, 820)"><rect x="1" y="1" width="148" height="148" rx="34.5" ry="34.5" fill="#16263F" />
    <g transform="translate(12.999999999999993, 18.166666666666664) scale(0.5166666666666667)">
    <polygon points="120,20 50,59.6 190,59.6" fill="#8493B0"/>
    <polygon points="50,59.6 120,113.60000000000001 120,200" fill="#A9B9D6"/>
    <polygon points="190,59.6 120,113.60000000000001 120,160.4" fill="#E6BC46"/>
    <polygon points="190,59.6 120,160.4 120,200" fill="#C99A24"/>
    <line x1="120" y1="74" x2="120" y2="194.6" stroke="#C7D2E8" stroke-width="3.5" stroke-linecap="round"/>
    <circle cx="120" cy="74" r="11.9" fill="#13243F" stroke="#9FB0CF" stroke-width="3.15"/></g></g>
<text x="660" y="1022" font-family="Poppins" font-weight="500" font-size="13" fill="#5B6472">Light badge keeps the two-tone crisp; dark badge for navy contexts (512×512 provided).</text>
<text x="64" y="1180" font-family="Poppins" font-weight="600" font-size="15" letter-spacing="2" fill="#BC8A1C">PALETTE</text>
<rect x="64" y="1204" width="150" height="84" rx="12" fill="#16263F" />
<text x="64" y="1318" font-family="Poppins" font-weight="600" font-size="16" fill="#20242B">Navy</text>
<text x="64" y="1340" font-family="Poppins" font-weight="400" font-size="13" fill="#5B6472">#16263F</text>
<rect x="264" y="1204" width="150" height="84" rx="12" fill="#21395C" />
<text x="264" y="1318" font-family="Poppins" font-weight="600" font-size="16" fill="#20242B">Navy mid</text>
<text x="264" y="1340" font-family="Poppins" font-weight="400" font-size="13" fill="#5B6472">#21395C</text>
<rect x="464" y="1204" width="150" height="84" rx="12" fill="#E2B53C" />
<text x="464" y="1318" font-family="Poppins" font-weight="600" font-size="16" fill="#20242B">Gold</text>
<text x="464" y="1340" font-family="Poppins" font-weight="400" font-size="13" fill="#5B6472">#E2B53C</text>
<rect x="664" y="1204" width="150" height="84" rx="12" fill="#BC8A1C" />
<text x="664" y="1318" font-family="Poppins" font-weight="600" font-size="16" fill="#20242B">Gold deep</text>
<text x="664" y="1340" font-family="Poppins" font-weight="400" font-size="13" fill="#5B6472">#BC8A1C</text>
<rect x="864" y="1204" width="150" height="84" rx="12" fill="#F4F6FA" stroke="#E3E7EF" stroke-width="2"/>
<text x="864" y="1318" font-family="Poppins" font-weight="600" font-size="16" fill="#20242B">Light</text>
<text x="864" y="1340" font-family="Poppins" font-weight="400" font-size="13" fill="#5B6472">#F4F6FA</text>
<text x="64" y="1390" font-family="Poppins" font-weight="600" font-size="15" letter-spacing="2" fill="#BC8A1C">TYPOGRAPHY</text>
<text x="64" y="1430" font-family="Poppins" font-weight="700" font-size="34" fill="#16263F">Poppins — headings</text>
<text x="64" y="1466" font-family="Poppins" font-weight="400" font-size="20" fill="#20242B">Inter / a clean sans — body text</text>
<line x1="64" y1="1496" x2="1176" y2="1496" stroke="#E3E7EF" stroke-width="2"/>
<text x="64" y="1528" font-family="Poppins" font-weight="500" font-size="13" fill="#5B6472">Original mark — not a copy of any product. Working concept; trademark the name before public use.</text></svg>